<svg xmlns="http://www.w3.org/2000/svg" viewBox="0 0 137.16 139.46"><defs><style>.cls-1{fill:#c3e191;}.cls-2{fill:#e8eaa0;}.cls-3{fill:#c3e7a5;}.cls-4{fill:#9acce4;}.cls-5{fill:#dde1f1;}.cls-6{fill:#b1cbe9;}.cls-7{fill:#e0d8b4;}.cls-8{fill:#e9e9e9;}.cls-9{fill:#e5dfc7;}</style></defs><g id="Layer_2" data-name="Layer 2"><g id="Layer_1-2" data-name="Layer 1"><path class="cls-1" d="M110.89,95.82c-11.66-3.26-26.34-5.21-42.31-5.21s-30.66,2-42.31,5.21H0V115c0,13.49,30.7,24.43,68.58,24.43s68.58-10.94,68.58-24.43V95.82Z"/><path class="cls-2" d="M137.16,96.85c0,11.25-30.71,20.36-68.58,20.36S0,108.1,0,96.85,26.94,76.52,64.81,76.52c1.34,0,0,2.35,6.93,2.65,7.49.32,7-2.41,8.4-2.36C114.11,78,137.16,86.44,137.16,96.85Z"/><path class="cls-3" d="M69,117.21c-.75,0-5.54,5-9.19,4.9s-6.16-5.38-6.16-5.38l11.2-40.21a12.6,12.6,0,0,0,7.49,2.67c2.32,0,2.19-.27,7.92-2.41Z"/><path class="cls-4" d="M110.89,57.56c-11.66-3.26-26.34-5.21-42.31-5.21S37.92,54.3,26.27,57.56H0V76.77c0,13.49,30.7,24.42,68.58,24.42s68.58-10.93,68.58-24.42V57.56Z"/><path class="cls-5" d="M137.16,58.59C137.16,69.84,106.45,79,68.58,79S0,69.84,0,58.59,26.94,38.26,64.81,38.26c1.34,0,0,2.35,6.93,2.65,7.49.32,7-2.41,8.4-2.36C114.11,39.76,137.16,48.18,137.16,58.59Z"/><path class="cls-6" d="M69,79c-.75,0-5.54,5-9.19,4.89s-6.16-5.37-6.16-5.37l11.2-40.21a12.6,12.6,0,0,0,7.49,2.67c2.32,0,2.19-.27,7.92-2.41Z"/><path class="cls-7" d="M110.89,19.3C99.23,16,84.55,14.09,68.58,14.09S37.92,16,26.27,19.3H0V38.51C0,52,30.7,62.93,68.58,62.93S137.16,52,137.16,38.51V19.3Z"/><path class="cls-8" d="M137.16,20.33c0,11.24-30.71,20.36-68.58,20.36S0,31.57,0,20.33,26.94,0,64.81,0c1.34,0,0,2.35,6.93,2.65,7.49.32,7-2.41,8.4-2.36C114.11,1.5,137.16,9.91,137.16,20.33Z"/><path class="cls-9" d="M69,40.69c-.75,0-5.54,5-9.19,4.89s-6.16-5.38-6.16-5.38L64.81,0A12.6,12.6,0,0,0,72.3,2.67c2.32,0,2.19-.27,7.92-2.41Z"/></g></g></svg>